<?xml version="1.0" encoding="UTF-8" standalone="no"?>
<!DOCTYPE svg PUBLIC "-//W3C//DTD SVG 1.1//EN" "http://www.w3.org/Graphics/SVG/1.1/DTD/svg11.dtd">
<svg width="100%" height="100%" viewBox="0 0 306 35" version="1.1" xmlns="http://www.w3.org/2000/svg" xmlns:xlink="http://www.w3.org/1999/xlink" xml:space="preserve" xmlns:serif="http://www.serif.com/" style="fill-rule:evenodd;clip-rule:evenodd;stroke-linejoin:round;stroke-miterlimit:1.41421;">
    <g id="Artboard1" transform="matrix(1,0,0,1.1652,0,43.782)">
        <rect x="0" y="-37.575" width="305.687" height="30.037" style="fill:none;"/>
        <g transform="matrix(0.57987,0,0,0.126846,-686.944,-285.196)">
            <g transform="matrix(0.749274,0,0,2.93965,297.022,-3796.96)">
                <path d="M1218.96,2002.3C1218.96,2000.1 1218.19,1998.41 1216.64,1997.24C1215.09,1996.06 1212.3,1994.82 1208.26,1993.52C1204.23,1992.21 1201.04,1990.92 1198.69,1989.66C1192.28,1986.19 1189.07,1981.53 1189.07,1975.66C1189.07,1972.61 1189.93,1969.89 1191.65,1967.5C1193.37,1965.11 1195.84,1963.24 1199.06,1961.9C1202.27,1960.55 1205.88,1959.88 1209.89,1959.88C1213.92,1959.88 1217.52,1960.61 1220.67,1962.07C1223.82,1963.53 1226.27,1965.59 1228.02,1968.26C1229.76,1970.92 1230.63,1973.94 1230.63,1977.33L1219,1977.33C1219,1974.74 1218.19,1972.73 1216.56,1971.3C1214.93,1969.86 1212.64,1969.15 1209.7,1969.15C1206.85,1969.15 1204.64,1969.75 1203.07,1970.95C1201.49,1972.15 1200.7,1973.74 1200.7,1975.7C1200.7,1977.53 1201.63,1979.07 1203.48,1980.31C1205.32,1981.55 1208.04,1982.72 1211.64,1983.8C1218.25,1985.79 1223.07,1988.26 1226.1,1991.21C1229.12,1994.15 1230.63,1997.83 1230.63,2002.22C1230.63,2007.1 1228.79,2010.94 1225.09,2013.72C1221.39,2016.49 1216.42,2017.88 1210.16,2017.88C1205.82,2017.88 1201.87,2017.09 1198.3,2015.5C1194.73,2013.91 1192.01,2011.73 1190.14,2008.97C1188.26,2006.2 1187.33,2003 1187.33,1999.35L1199,1999.35C1199,2005.58 1202.72,2008.69 1210.16,2008.69C1212.93,2008.69 1215.09,2008.13 1216.64,2007.01C1218.19,2005.88 1218.96,2004.31 1218.96,2002.3Z" style="fill:url(#_Linear1);fill-rule:nonzero;"/>
            </g>
            <g transform="matrix(0.749274,0,0,2.93965,297.022,-3796.96)">
                <path d="M1248.55,2007.76L1273.25,2007.76L1273.25,2017.11L1236.92,2017.11L1236.92,1960.66L1248.55,1960.66L1248.55,2007.76Z" style="fill:url(#_Linear2);fill-rule:nonzero;"/>
            </g>
            <g transform="matrix(0.749274,0,0,2.93965,297.022,-3796.96)">
                <path d="M1320.16,1998.3C1319.72,2004.38 1317.48,2009.16 1313.43,2012.65C1309.39,2016.14 1304.06,2017.88 1297.44,2017.88C1290.2,2017.88 1284.51,2015.45 1280.36,2010.58C1276.21,2005.7 1274.14,1999.01 1274.14,1990.51L1274.14,1987.06C1274.14,1981.63 1275.1,1976.85 1277.01,1972.71C1278.92,1968.58 1281.65,1965.4 1285.21,1963.19C1288.76,1960.99 1292.89,1959.88 1297.6,1959.88C1304.11,1959.88 1309.36,1961.62 1313.34,1965.11C1317.32,1968.6 1319.62,1973.5 1320.24,1979.81L1308.61,1979.81C1308.32,1976.16 1307.31,1973.52 1305.56,1971.88C1303.82,1970.24 1301.16,1969.42 1297.6,1969.42C1293.72,1969.42 1290.82,1970.81 1288.89,1973.59C1286.97,1976.37 1285.98,1980.67 1285.93,1986.52L1285.93,1990.78C1285.93,1996.88 1286.85,2001.34 1288.7,2004.16C1290.55,2006.98 1293.46,2008.38 1297.44,2008.38C1301.03,2008.38 1303.72,2007.56 1305.49,2005.92C1307.26,2004.28 1308.27,2001.74 1308.53,1998.3L1320.16,1998.3Z" style="fill:url(#_Linear3);fill-rule:nonzero;"/>
            </g>
            <g transform="matrix(0.749274,0,0,2.93965,297.022,-3796.96)">
                <path d="M1388.71,1998.3C1388.27,2004.38 1386.03,2009.16 1381.99,2012.65C1377.94,2016.14 1372.61,2017.88 1365.99,2017.88C1358.76,2017.88 1353.06,2015.45 1348.91,2010.58C1344.77,2005.7 1342.69,1999.01 1342.69,1990.51L1342.69,1987.06C1342.69,1981.63 1343.65,1976.85 1345.56,1972.71C1347.47,1968.58 1350.21,1965.4 1353.76,1963.19C1357.32,1960.99 1361.44,1959.88 1366.15,1959.88C1372.66,1959.88 1377.91,1961.62 1381.89,1965.11C1385.87,1968.6 1388.17,1973.5 1388.79,1979.81L1377.16,1979.81C1376.88,1976.16 1375.86,1973.52 1374.12,1971.88C1372.37,1970.24 1369.72,1969.42 1366.15,1969.42C1362.27,1969.42 1359.37,1970.81 1357.44,1973.59C1355.52,1976.37 1354.53,1980.67 1354.48,1986.52L1354.48,1990.78C1354.48,1996.88 1355.4,2001.34 1357.25,2004.16C1359.1,2006.98 1362.01,2008.38 1365.99,2008.38C1369.59,2008.38 1372.27,2007.56 1374.04,2005.92C1375.81,2004.28 1376.82,2001.74 1377.08,1998.3L1388.71,1998.3Z" style="fill:url(#_Linear4);fill-rule:nonzero;"/>
            </g>
            <g transform="matrix(0.749274,0,0,2.93965,297.022,-3796.96)">
                <path d="M1417.6,1985.66C1416.08,1985.46 1414.73,1985.35 1413.57,1985.35C1409.33,1985.35 1406.55,1986.79 1405.23,1989.66L1405.23,2017.11L1394.03,2017.11L1394.03,1975.16L1404.61,1975.16L1404.92,1980.16C1407.17,1976.31 1410.29,1974.38 1414.27,1974.38C1415.51,1974.38 1416.67,1974.55 1417.76,1974.88L1417.6,1985.66Z" style="fill:url(#_Linear5);fill-rule:nonzero;"/>
            </g>
            <g transform="matrix(0.749274,0,0,2.93965,297.022,-3796.96)">
                <path d="M1433.23,2017.11L1421.98,2017.11L1421.98,1975.16L1433.23,1975.16L1433.23,2017.11ZM1421.32,1964.3C1421.32,1962.62 1421.89,1961.24 1423.01,1960.15C1424.13,1959.07 1425.67,1958.52 1427.61,1958.52C1429.52,1958.52 1431.04,1959.07 1432.18,1960.15C1433.32,1961.24 1433.89,1962.62 1433.89,1964.3C1433.89,1966.01 1433.31,1967.4 1432.16,1968.49C1431.01,1969.57 1429.49,1970.12 1427.61,1970.12C1425.72,1970.12 1424.2,1969.57 1423.05,1968.49C1421.9,1967.4 1421.32,1966.01 1421.32,1964.3Z" style="fill:url(#_Linear6);fill-rule:nonzero;"/>
            </g>
            <g transform="matrix(0.749274,0,0,2.93965,297.022,-3796.96)">
                <path d="M1451.37,1975.16L1451.72,1979.85C1454.69,1976.2 1458.71,1974.38 1463.78,1974.38C1469.18,1974.38 1472.89,1976.51 1474.91,1980.78C1477.86,1976.51 1482.06,1974.38 1487.51,1974.38C1492.06,1974.38 1495.44,1975.71 1497.67,1978.36C1499.89,1981 1501,1984.99 1501,1990.32L1501,2017.11L1489.76,2017.11L1489.76,1990.36C1489.76,1987.98 1489.29,1986.24 1488.36,1985.14C1487.43,1984.04 1485.79,1983.49 1483.44,1983.49C1480.08,1983.49 1477.75,1985.1 1476.46,1988.3L1476.5,2017.11L1465.29,2017.11L1465.29,1990.39C1465.29,1987.96 1464.82,1986.21 1463.86,1985.12C1462.9,1984.04 1461.27,1983.49 1458.97,1983.49C1455.79,1983.49 1453.49,1984.81 1452.07,1987.45L1452.07,2017.11L1440.87,2017.11L1440.87,1975.16L1451.37,1975.16Z" style="fill:url(#_Linear7);fill-rule:nonzero;"/>
            </g>
            <g transform="matrix(0.749274,0,0,2.93965,297.022,-3796.96)">
                <path d="M1527.33,2017.88C1521.18,2017.88 1516.17,2016 1512.31,2012.22C1508.44,2008.45 1506.51,2003.42 1506.51,1997.14L1506.51,1996.05C1506.51,1991.84 1507.32,1988.07 1508.95,1984.75C1510.58,1981.43 1512.89,1978.87 1515.87,1977.08C1518.86,1975.28 1522.26,1974.38 1526.09,1974.38C1531.83,1974.38 1536.34,1976.19 1539.64,1979.81C1542.94,1983.43 1544.58,1988.56 1544.58,1995.2L1544.58,1999.78L1517.87,1999.78C1518.23,2002.52 1519.32,2004.71 1521.15,2006.37C1522.97,2008.02 1525.28,2008.85 1528.07,2008.85C1532.38,2008.85 1535.76,2007.29 1538.19,2004.16L1543.69,2010.32C1542.01,2012.7 1539.74,2014.56 1536.87,2015.89C1534,2017.22 1530.82,2017.88 1527.33,2017.88ZM1526.05,1983.45C1523.83,1983.45 1522.03,1984.2 1520.64,1985.7C1519.26,1987.2 1518.37,1989.35 1517.99,1992.14L1533.57,1992.14L1533.57,1991.25C1533.52,1988.77 1532.85,1986.85 1531.56,1985.49C1530.26,1984.13 1528.43,1983.45 1526.05,1983.45Z" style="fill:url(#_Linear8);fill-rule:nonzero;"/>
            </g>
            <g transform="matrix(0.749274,0,0,2.93965,297.022,-3796.96)">
                <path d="M1614.22,2017.11L1602.59,2017.11L1602.59,1992.91L1579.91,1992.91L1579.91,2017.11L1568.28,2017.11L1568.28,1960.66L1579.91,1960.66L1579.91,1983.53L1602.59,1983.53L1602.59,1960.66L1614.22,1960.66L1614.22,2017.11Z" style="fill:url(#_Linear9);fill-rule:nonzero;"/>
            </g>
            <g transform="matrix(0.749274,0,0,2.93965,297.022,-3796.96)">
                <path d="M1641.36,2017.88C1635.21,2017.88 1630.2,2016 1626.34,2012.22C1622.47,2008.45 1620.54,2003.42 1620.54,1997.14L1620.54,1996.05C1620.54,1991.84 1621.36,1988.07 1622.99,1984.75C1624.61,1981.43 1626.92,1978.87 1629.91,1977.08C1632.89,1975.28 1636.3,1974.38 1640.12,1974.38C1645.86,1974.38 1650.38,1976.19 1653.67,1979.81C1656.97,1983.43 1658.62,1988.56 1658.62,1995.2L1658.62,1999.78L1631.9,1999.78C1632.26,2002.52 1633.36,2004.71 1635.18,2006.37C1637,2008.02 1639.31,2008.85 1642.1,2008.85C1646.42,2008.85 1649.79,2007.29 1652.22,2004.16L1657.73,2010.32C1656.04,2012.7 1653.77,2014.56 1650.9,2015.89C1648.03,2017.22 1644.85,2017.88 1641.36,2017.88ZM1640.08,1983.45C1637.86,1983.45 1636.06,1984.2 1634.67,1985.7C1633.29,1987.2 1632.41,1989.35 1632.02,1992.14L1647.61,1992.14L1647.61,1991.25C1647.55,1988.77 1646.88,1986.85 1645.59,1985.49C1644.3,1984.13 1642.46,1983.45 1640.08,1983.45Z" style="fill:url(#_Linear10);fill-rule:nonzero;"/>
            </g>
            <g transform="matrix(0.749274,0,0,2.93965,297.022,-3796.96)">
                <path d="M1687.7,2017.11C1687.18,2016.1 1686.81,2014.85 1686.57,2013.35C1683.86,2016.37 1680.33,2017.88 1675.99,2017.88C1671.88,2017.88 1668.47,2016.69 1665.77,2014.32C1663.07,2011.94 1661.72,2008.94 1661.72,2005.32C1661.72,2000.88 1663.37,1997.46 1666.66,1995.09C1669.96,1992.71 1674.72,1991.51 1680.95,1991.48L1686.11,1991.48L1686.11,1989.08C1686.11,1987.14 1685.61,1985.59 1684.61,1984.42C1683.62,1983.26 1682.05,1982.68 1679.9,1982.68C1678.02,1982.68 1676.54,1983.13 1675.46,1984.04C1674.39,1984.94 1673.86,1986.18 1673.86,1987.76L1662.65,1987.76C1662.65,1985.33 1663.4,1983.08 1664.9,1981.01C1666.4,1978.94 1668.52,1977.32 1671.26,1976.14C1674,1974.97 1677.07,1974.38 1680.49,1974.38C1685.65,1974.38 1689.76,1975.68 1692.8,1978.28C1695.83,1980.88 1697.35,1984.53 1697.35,1989.23L1697.35,2007.41C1697.38,2011.39 1697.93,2014.41 1699.02,2016.45L1699.02,2017.11L1687.7,2017.11ZM1678.43,2009.31C1680.09,2009.31 1681.61,2008.95 1683.01,2008.21C1684.4,2007.47 1685.43,2006.48 1686.11,2005.24L1686.11,1998.03L1681.92,1998.03C1676.31,1998.03 1673.33,1999.97 1672.96,2003.85L1672.92,2004.51C1672.92,2005.9 1673.42,2007.05 1674.4,2007.96C1675.38,2008.86 1676.72,2009.31 1678.43,2009.31Z" style="fill:url(#_Linear11);fill-rule:nonzero;"/>
            </g>
            <g transform="matrix(0.749274,0,0,2.93965,297.022,-3796.96)">
                <path d="M1717.79,1964.84L1717.79,1975.16L1724.96,1975.16L1724.96,1983.38L1717.79,1983.38L1717.79,2004.31C1717.79,2005.86 1718.08,2006.98 1718.68,2007.65C1719.27,2008.32 1720.41,2008.65 1722.09,2008.65C1723.33,2008.65 1724.43,2008.57 1725.38,2008.38L1725.38,2016.88C1723.19,2017.55 1720.93,2017.88 1718.6,2017.88C1710.74,2017.88 1706.74,2013.91 1706.58,2005.98L1706.58,1983.38L1700.45,1983.38L1700.45,1975.16L1706.58,1975.16L1706.58,1964.84L1717.79,1964.84Z" style="fill:url(#_Linear12);fill-rule:nonzero;"/>
            </g>
            <g transform="matrix(0.749274,0,0,2.93965,297.022,-3796.96)">
                <path d="M1740.12,1975.16L1740.47,1979.85C1743.44,1976.2 1747.46,1974.38 1752.53,1974.38C1757.93,1974.38 1761.64,1976.51 1763.65,1980.78C1766.6,1976.51 1770.8,1974.38 1776.26,1974.38C1780.8,1974.38 1784.19,1975.71 1786.41,1978.36C1788.64,1981 1789.75,1984.99 1789.75,1990.32L1789.75,2017.11L1778.5,2017.11L1778.5,1990.36C1778.5,1987.98 1778.04,1986.24 1777.11,1985.14C1776.18,1984.04 1774.54,1983.49 1772.18,1983.49C1768.82,1983.49 1766.5,1985.1 1765.2,1988.3L1765.24,2017.11L1754.04,2017.11L1754.04,1990.39C1754.04,1987.96 1753.56,1986.21 1752.6,1985.12C1751.65,1984.04 1750.02,1983.49 1747.72,1983.49C1744.54,1983.49 1742.24,1984.81 1740.82,1987.45L1740.82,2017.11L1729.61,2017.11L1729.61,1975.16L1740.12,1975.16Z" style="fill:url(#_Linear13);fill-rule:nonzero;"/>
            </g>
            <g transform="matrix(0.749274,0,0,2.93965,297.022,-3796.96)">
                <path d="M1821.08,2017.11C1820.56,2016.1 1820.18,2014.85 1819.95,2013.35C1817.24,2016.37 1813.71,2017.88 1809.37,2017.88C1805.26,2017.88 1801.85,2016.69 1799.15,2014.32C1796.45,2011.94 1795.1,2008.94 1795.1,2005.32C1795.1,2000.88 1796.75,1997.46 1800.04,1995.09C1803.34,1992.71 1808.1,1991.51 1814.33,1991.48L1819.49,1991.48L1819.49,1989.08C1819.49,1987.14 1818.99,1985.59 1818,1984.42C1817,1983.26 1815.43,1982.68 1813.28,1982.68C1811.4,1982.68 1809.92,1983.13 1808.84,1984.04C1807.77,1984.94 1807.24,1986.18 1807.24,1987.76L1796.03,1987.76C1796.03,1985.33 1796.78,1983.08 1798.28,1981.01C1799.78,1978.94 1801.9,1977.32 1804.64,1976.14C1807.38,1974.97 1810.45,1974.38 1813.87,1974.38C1819.04,1974.38 1823.14,1975.68 1826.17,1978.28C1829.21,1980.88 1830.73,1984.53 1830.73,1989.23L1830.73,2007.41C1830.76,2011.39 1831.31,2014.41 1832.4,2016.45L1832.4,2017.11L1821.08,2017.11ZM1811.81,2009.31C1813.47,2009.31 1814.99,2008.95 1816.39,2008.21C1817.78,2007.47 1818.82,2006.48 1819.49,2005.24L1819.49,1998.03L1815.3,1998.03C1809.69,1998.03 1806.7,1999.97 1806.34,2003.85L1806.31,2004.51C1806.31,2005.9 1806.8,2007.05 1807.78,2007.96C1808.76,2008.86 1810.11,2009.31 1811.81,2009.31Z" style="fill:url(#_Linear14);fill-rule:nonzero;"/>
            </g>
            <g transform="matrix(0.749274,0,0,2.93965,297.022,-3796.96)">
                <path d="M1875.51,1996.52C1875.51,2002.98 1874.05,2008.16 1871.11,2012.05C1868.18,2015.94 1864.22,2017.88 1859.23,2017.88C1854.99,2017.88 1851.57,2016.41 1848.96,2013.46L1848.96,2033.24L1837.75,2033.24L1837.75,1975.16L1848.14,1975.16L1848.53,1979.27C1851.24,1976.01 1854.78,1974.38 1859.15,1974.38C1864.32,1974.38 1868.34,1976.29 1871.21,1980.12C1874.08,1983.94 1875.51,1989.22 1875.51,1995.94L1875.51,1996.52ZM1864.31,1995.71C1864.31,1991.8 1863.62,1988.79 1862.24,1986.67C1860.85,1984.55 1858.84,1983.49 1856.21,1983.49C1852.69,1983.49 1850.27,1984.84 1848.96,1987.53L1848.96,2004.7C1850.33,2007.47 1852.77,2008.85 1856.28,2008.85C1861.63,2008.85 1864.31,2004.47 1864.31,1995.71Z" style="fill:url(#_Linear15);fill-rule:nonzero;"/>
            </g>
        </g>
    </g>
    <defs>
        <linearGradient id="_Linear1" x1="0" y1="0" x2="1" y2="0" gradientUnits="userSpaceOnUse" gradientTransform="matrix(730,0,0,730,1184.65,2070.54)"><stop offset="0" style="stop-color:rgb(214,77,64);stop-opacity:1"/><stop offset="1" style="stop-color:rgb(255,132,29);stop-opacity:1"/></linearGradient>
        <linearGradient id="_Linear2" x1="0" y1="0" x2="1" y2="0" gradientUnits="userSpaceOnUse" gradientTransform="matrix(730,0,0,730,1184.65,2070.54)"><stop offset="0" style="stop-color:rgb(214,77,64);stop-opacity:1"/><stop offset="1" style="stop-color:rgb(255,132,29);stop-opacity:1"/></linearGradient>
        <linearGradient id="_Linear3" x1="0" y1="0" x2="1" y2="0" gradientUnits="userSpaceOnUse" gradientTransform="matrix(730,0,0,730,1184.65,2070.54)"><stop offset="0" style="stop-color:rgb(214,77,64);stop-opacity:1"/><stop offset="1" style="stop-color:rgb(255,132,29);stop-opacity:1"/></linearGradient>
        <linearGradient id="_Linear4" x1="0" y1="0" x2="1" y2="0" gradientUnits="userSpaceOnUse" gradientTransform="matrix(730,0,0,730,1184.65,2070.54)"><stop offset="0" style="stop-color:rgb(214,77,64);stop-opacity:1"/><stop offset="1" style="stop-color:rgb(255,132,29);stop-opacity:1"/></linearGradient>
        <linearGradient id="_Linear5" x1="0" y1="0" x2="1" y2="0" gradientUnits="userSpaceOnUse" gradientTransform="matrix(730,0,0,730,1184.65,2070.54)"><stop offset="0" style="stop-color:rgb(214,77,64);stop-opacity:1"/><stop offset="1" style="stop-color:rgb(255,132,29);stop-opacity:1"/></linearGradient>
        <linearGradient id="_Linear6" x1="0" y1="0" x2="1" y2="0" gradientUnits="userSpaceOnUse" gradientTransform="matrix(730,0,0,730,1184.65,2070.54)"><stop offset="0" style="stop-color:rgb(214,77,64);stop-opacity:1"/><stop offset="1" style="stop-color:rgb(255,132,29);stop-opacity:1"/></linearGradient>
        <linearGradient id="_Linear7" x1="0" y1="0" x2="1" y2="0" gradientUnits="userSpaceOnUse" gradientTransform="matrix(730,0,0,730,1184.65,2070.54)"><stop offset="0" style="stop-color:rgb(214,77,64);stop-opacity:1"/><stop offset="1" style="stop-color:rgb(255,132,29);stop-opacity:1"/></linearGradient>
        <linearGradient id="_Linear8" x1="0" y1="0" x2="1" y2="0" gradientUnits="userSpaceOnUse" gradientTransform="matrix(730,0,0,730,1184.65,2070.54)"><stop offset="0" style="stop-color:rgb(214,77,64);stop-opacity:1"/><stop offset="1" style="stop-color:rgb(255,132,29);stop-opacity:1"/></linearGradient>
        <linearGradient id="_Linear9" x1="0" y1="0" x2="1" y2="0" gradientUnits="userSpaceOnUse" gradientTransform="matrix(730,0,0,730,1184.65,2070.54)"><stop offset="0" style="stop-color:rgb(214,77,64);stop-opacity:1"/><stop offset="1" style="stop-color:rgb(255,132,29);stop-opacity:1"/></linearGradient>
        <linearGradient id="_Linear10" x1="0" y1="0" x2="1" y2="0" gradientUnits="userSpaceOnUse" gradientTransform="matrix(730,0,0,730,1184.65,2070.54)"><stop offset="0" style="stop-color:rgb(214,77,64);stop-opacity:1"/><stop offset="1" style="stop-color:rgb(255,132,29);stop-opacity:1"/></linearGradient>
        <linearGradient id="_Linear11" x1="0" y1="0" x2="1" y2="0" gradientUnits="userSpaceOnUse" gradientTransform="matrix(730,0,0,730,1184.65,2070.54)"><stop offset="0" style="stop-color:rgb(214,77,64);stop-opacity:1"/><stop offset="1" style="stop-color:rgb(255,132,29);stop-opacity:1"/></linearGradient>
        <linearGradient id="_Linear12" x1="0" y1="0" x2="1" y2="0" gradientUnits="userSpaceOnUse" gradientTransform="matrix(730,0,0,730,1184.65,2070.54)"><stop offset="0" style="stop-color:rgb(214,77,64);stop-opacity:1"/><stop offset="1" style="stop-color:rgb(255,132,29);stop-opacity:1"/></linearGradient>
        <linearGradient id="_Linear13" x1="0" y1="0" x2="1" y2="0" gradientUnits="userSpaceOnUse" gradientTransform="matrix(730,0,0,730,1184.65,2070.54)"><stop offset="0" style="stop-color:rgb(214,77,64);stop-opacity:1"/><stop offset="1" style="stop-color:rgb(255,132,29);stop-opacity:1"/></linearGradient>
        <linearGradient id="_Linear14" x1="0" y1="0" x2="1" y2="0" gradientUnits="userSpaceOnUse" gradientTransform="matrix(730,0,0,730,1184.65,2070.54)"><stop offset="0" style="stop-color:rgb(214,77,64);stop-opacity:1"/><stop offset="1" style="stop-color:rgb(255,132,29);stop-opacity:1"/></linearGradient>
        <linearGradient id="_Linear15" x1="0" y1="0" x2="1" y2="0" gradientUnits="userSpaceOnUse" gradientTransform="matrix(730,0,0,730,1184.65,2070.54)"><stop offset="0" style="stop-color:rgb(214,77,64);stop-opacity:1"/><stop offset="1" style="stop-color:rgb(255,132,29);stop-opacity:1"/></linearGradient>
    </defs>
</svg>
